<mxfile host="app.diagrams.net" modified="2024-03-06T13:02:18.395Z" agent="Mozilla/5.0 (Windows NT 10.0; Win64; x64) AppleWebKit/537.36 (KHTML, like Gecko) Chrome/122.0.0.0 Safari/537.36 Edg/122.0.0.0" etag="pKG8e8xy3cgpJ79Egl2w" version="24.0.1" type="github">
  <diagram id="C5RBs43oDa-KdzZeNtuy" name="Page-1">
    <mxGraphModel dx="1904" dy="1035" grid="1" gridSize="10" guides="1" tooltips="1" connect="1" arrows="1" fold="1" page="1" pageScale="1" pageWidth="827" pageHeight="1169" math="0" shadow="0">
      <root>
        <mxCell id="WIyWlLk6GJQsqaUBKTNV-0" />
        <mxCell id="WIyWlLk6GJQsqaUBKTNV-1" parent="WIyWlLk6GJQsqaUBKTNV-0" />
        <mxCell id="1TVI4xtX2g-0AGL2v32P-1" value="User Authentication&lt;br style=&quot;border-color: var(--border-color);&quot;&gt;&lt;span style=&quot;&quot;&gt;- parent&#39;s login&lt;/span&gt;&lt;br style=&quot;border-color: var(--border-color);&quot;&gt;&lt;span style=&quot;&quot;&gt;- children&#39;s login&lt;/span&gt;" style="shape=ext;double=1;rounded=1;whiteSpace=wrap;html=1;strokeColor=#BAC8D3;fontColor=#EEEEEE;fillColor=#09555B;" vertex="1" parent="WIyWlLk6GJQsqaUBKTNV-1">
          <mxGeometry x="320" y="250" width="130" height="90" as="geometry" />
        </mxCell>
        <mxCell id="1TVI4xtX2g-0AGL2v32P-2" value="" style="edgeStyle=orthogonalEdgeStyle;rounded=0;orthogonalLoop=1;jettySize=auto;html=1;strokeColor=#66CC00;fontColor=#66CC00;" edge="1" parent="WIyWlLk6GJQsqaUBKTNV-1" source="1TVI4xtX2g-0AGL2v32P-3" target="1TVI4xtX2g-0AGL2v32P-40">
          <mxGeometry relative="1" as="geometry" />
        </mxCell>
        <mxCell id="1TVI4xtX2g-0AGL2v32P-3" value="Analytics&lt;br&gt;POWER BI" style="rhombus;whiteSpace=wrap;html=1;shadow=0;fontFamily=Helvetica;fontSize=12;align=center;strokeWidth=1;spacing=6;spacingTop=-4;labelBackgroundColor=none;fillColor=#60a917;strokeColor=#2D7600;fontColor=#ffffff;" vertex="1" parent="WIyWlLk6GJQsqaUBKTNV-1">
          <mxGeometry x="82.5" y="720" width="200" height="132" as="geometry" />
        </mxCell>
        <mxCell id="1TVI4xtX2g-0AGL2v32P-4" value="" style="edgeStyle=orthogonalEdgeStyle;rounded=0;orthogonalLoop=1;jettySize=auto;html=1;labelBackgroundColor=none;strokeColor=#0B4D6A;fontColor=default;" edge="1" parent="WIyWlLk6GJQsqaUBKTNV-1" target="1TVI4xtX2g-0AGL2v32P-3">
          <mxGeometry relative="1" as="geometry">
            <Array as="points">
              <mxPoint x="183" y="660" />
              <mxPoint x="183" y="660" />
            </Array>
            <mxPoint x="222.61476016080724" y="660" as="sourcePoint" />
          </mxGeometry>
        </mxCell>
        <mxCell id="1TVI4xtX2g-0AGL2v32P-5" style="edgeStyle=orthogonalEdgeStyle;rounded=0;orthogonalLoop=1;jettySize=auto;html=1;entryX=0.5;entryY=0;entryDx=0;entryDy=0;strokeColor=#0B4D6A;" edge="1" parent="WIyWlLk6GJQsqaUBKTNV-1" target="1TVI4xtX2g-0AGL2v32P-21">
          <mxGeometry relative="1" as="geometry">
            <Array as="points">
              <mxPoint x="432" y="696" />
              <mxPoint x="535" y="696" />
            </Array>
            <mxPoint x="432" y="660" as="sourcePoint" />
          </mxGeometry>
        </mxCell>
        <mxCell id="1TVI4xtX2g-0AGL2v32P-21" value="SharePoint" style="swimlane;whiteSpace=wrap;html=1;strokeColor=#BAC8D3;labelBackgroundColor=none;fillColor=#09555B;fontColor=#EEEEEE;" vertex="1" parent="WIyWlLk6GJQsqaUBKTNV-1">
          <mxGeometry x="460" y="780" width="150" height="90" as="geometry" />
        </mxCell>
        <mxCell id="1TVI4xtX2g-0AGL2v32P-22" value="" style="strokeWidth=2;html=1;shape=mxgraph.flowchart.database;whiteSpace=wrap;strokeColor=#BAC8D3;fontColor=#EEEEEE;fillColor=#09555B;" vertex="1" parent="1TVI4xtX2g-0AGL2v32P-21">
          <mxGeometry x="40" y="30" width="75" height="59" as="geometry" />
        </mxCell>
        <mxCell id="1TVI4xtX2g-0AGL2v32P-23" value="Datasource" style="text;html=1;align=center;verticalAlign=middle;resizable=0;points=[];autosize=1;strokeColor=none;fillColor=none;fontColor=#EEEEEE;labelBackgroundColor=none;" vertex="1" parent="1TVI4xtX2g-0AGL2v32P-21">
          <mxGeometry x="37.5" y="49" width="80" height="30" as="geometry" />
        </mxCell>
        <mxCell id="1TVI4xtX2g-0AGL2v32P-25" value="Notifications&lt;br style=&quot;border-color: var(--border-color);&quot;&gt;&lt;span style=&quot;&quot;&gt;- Reminders for&amp;nbsp;&lt;/span&gt;&lt;br style=&quot;border-color: var(--border-color);&quot;&gt;&lt;span style=&quot;&quot;&gt;&amp;nbsp;tasks or deadlines&lt;/span&gt;&lt;br style=&quot;border-color: var(--border-color);&quot;&gt;&lt;span style=&quot;&quot;&gt;- Notifications for&amp;nbsp;&lt;/span&gt;&lt;br style=&quot;border-color: var(--border-color);&quot;&gt;&lt;span style=&quot;&quot;&gt;&amp;nbsp;rewards and punishments&lt;/span&gt;" style="shape=ext;double=1;rounded=1;whiteSpace=wrap;html=1;strokeColor=#BAC8D3;fontColor=#EEEEEE;fillColor=#09555B;" vertex="1" parent="WIyWlLk6GJQsqaUBKTNV-1">
          <mxGeometry x="460" y="250" width="150" height="90" as="geometry" />
        </mxCell>
        <mxCell id="1TVI4xtX2g-0AGL2v32P-27" value="Profile Settings&lt;br&gt;- Customize app settings&amp;nbsp;&lt;br&gt;&amp;nbsp;- Children view own progress and points " style="shape=ext;double=1;rounded=1;whiteSpace=wrap;html=1;strokeColor=#BAC8D3;fontColor=#EEEEEE;fillColor=#09555B;" vertex="1" parent="WIyWlLk6GJQsqaUBKTNV-1">
          <mxGeometry x="620" y="250" width="140" height="90" as="geometry" />
        </mxCell>
        <mxCell id="1TVI4xtX2g-0AGL2v32P-31" style="edgeStyle=orthogonalEdgeStyle;rounded=0;orthogonalLoop=1;jettySize=auto;html=1;strokeColor=#60A917;fontColor=#66CC00;fillColor=#60a917;" edge="1" parent="WIyWlLk6GJQsqaUBKTNV-1" source="1TVI4xtX2g-0AGL2v32P-32">
          <mxGeometry relative="1" as="geometry">
            <Array as="points">
              <mxPoint x="810" y="230" />
              <mxPoint x="810" y="546" />
            </Array>
            <mxPoint x="731.476729155926" y="546" as="targetPoint" />
          </mxGeometry>
        </mxCell>
        <mxCell id="1TVI4xtX2g-0AGL2v32P-32" value="Power Agent - chatbot inquires&lt;br style=&quot;border-color: var(--border-color); color: rgb(255, 255, 255);&quot;&gt;FROM PARENTS:&amp;nbsp; about which areas parents would like to focus on for their children&#39;s development&lt;br&gt;FROM CHILDREN:&amp;nbsp;Desired reward for their achievement&lt;span style=&quot;color: rgb(255, 255, 255);&quot;&gt;&lt;br&gt;&lt;/span&gt;" style="ellipse;whiteSpace=wrap;html=1;strokeColor=#2D7600;fontColor=#ffffff;fillColor=#60A917;" vertex="1" parent="WIyWlLk6GJQsqaUBKTNV-1">
          <mxGeometry x="75" y="140" width="220" height="150" as="geometry" />
        </mxCell>
        <mxCell id="1TVI4xtX2g-0AGL2v32P-33" style="edgeStyle=orthogonalEdgeStyle;rounded=0;orthogonalLoop=1;jettySize=auto;html=1;strokeColor=#0B4D6A;" edge="1" parent="WIyWlLk6GJQsqaUBKTNV-1" source="1TVI4xtX2g-0AGL2v32P-34" target="1TVI4xtX2g-0AGL2v32P-32">
          <mxGeometry relative="1" as="geometry">
            <Array as="points">
              <mxPoint x="70" y="130" />
              <mxPoint x="185" y="130" />
            </Array>
          </mxGeometry>
        </mxCell>
        <mxCell id="1TVI4xtX2g-0AGL2v32P-34" value="&lt;br&gt;&lt;br&gt;user" style="shape=actor;whiteSpace=wrap;html=1;strokeColor=#BAC8D3;fontColor=#EEEEEE;fillColor=#09555B;" vertex="1" parent="WIyWlLk6GJQsqaUBKTNV-1">
          <mxGeometry x="50" y="40" width="40" height="60" as="geometry" />
        </mxCell>
        <mxCell id="1TVI4xtX2g-0AGL2v32P-35" value="&lt;br&gt;&lt;br&gt;user" style="shape=actor;whiteSpace=wrap;html=1;strokeColor=#BAC8D3;fontColor=#EEEEEE;fillColor=#09555B;" vertex="1" parent="WIyWlLk6GJQsqaUBKTNV-1">
          <mxGeometry x="110" y="40" width="40" height="60" as="geometry" />
        </mxCell>
        <mxCell id="1TVI4xtX2g-0AGL2v32P-36" value="&lt;font color=&quot;#ffffff&quot;&gt;try to embed chat GPT custom connector&lt;/font&gt;" style="text;html=1;align=center;verticalAlign=middle;whiteSpace=wrap;rounded=0;fontColor=#000000;labelBackgroundColor=#97D077;" vertex="1" parent="WIyWlLk6GJQsqaUBKTNV-1">
          <mxGeometry x="490" y="210" width="265" height="30" as="geometry" />
        </mxCell>
        <mxCell id="1TVI4xtX2g-0AGL2v32P-37" value="&lt;font style=&quot;font-size: 26px;&quot;&gt;&lt;b&gt;&amp;nbsp;BoniHabitus&amp;nbsp;&lt;/b&gt;&lt;/font&gt;&lt;div&gt;&lt;font style=&quot;font-size: 26px;&quot;&gt;&lt;b style=&quot;border-color: var(--border-color);&quot;&gt;information&amp;nbsp;&lt;/b&gt;&lt;b&gt;architecture&lt;/b&gt;&lt;/font&gt;&lt;/div&gt;" style="text;html=1;align=center;verticalAlign=middle;resizable=0;points=[];autosize=1;strokeColor=none;fillColor=none;labelBackgroundColor=none;fontColor=#000000;" vertex="1" parent="WIyWlLk6GJQsqaUBKTNV-1">
          <mxGeometry x="285" y="20" width="320" height="80" as="geometry" />
        </mxCell>
        <mxCell id="1TVI4xtX2g-0AGL2v32P-38" value="&lt;font style=&quot;&quot; size=&quot;1&quot;&gt;&lt;i style=&quot;font-size: 22px;&quot;&gt;Plan, 28.2.24&lt;/i&gt;&lt;/font&gt;" style="text;html=1;align=center;verticalAlign=middle;resizable=0;points=[];autosize=1;strokeColor=none;fillColor=none;labelBackgroundColor=none;fontColor=#000000;" vertex="1" parent="WIyWlLk6GJQsqaUBKTNV-1">
          <mxGeometry x="630" y="1020" width="150" height="40" as="geometry" />
        </mxCell>
        <mxCell id="1TVI4xtX2g-0AGL2v32P-39" style="edgeStyle=orthogonalEdgeStyle;rounded=0;orthogonalLoop=1;jettySize=auto;html=1;entryX=0.627;entryY=0.02;entryDx=0;entryDy=0;entryPerimeter=0;strokeColor=#0B4D6A;" edge="1" parent="WIyWlLk6GJQsqaUBKTNV-1" source="1TVI4xtX2g-0AGL2v32P-35" target="1TVI4xtX2g-0AGL2v32P-32">
          <mxGeometry relative="1" as="geometry" />
        </mxCell>
        <mxCell id="1TVI4xtX2g-0AGL2v32P-40" value="Send by email&amp;nbsp; to parents &lt;br&gt;with completed tasks &lt;br&gt;and advices for future development" style="rounded=1;whiteSpace=wrap;html=1;strokeColor=#BAC8D3;fontColor=#EEEEEE;fillColor=#09555B;" vertex="1" parent="WIyWlLk6GJQsqaUBKTNV-1">
          <mxGeometry x="68.75" y="960" width="227.5" height="100" as="geometry" />
        </mxCell>
        <mxCell id="1TVI4xtX2g-0AGL2v32P-41" value="&lt;font color=&quot;#ffffff&quot;&gt;try to embed chat GPT custom connector&lt;/font&gt;" style="text;html=1;align=center;verticalAlign=middle;whiteSpace=wrap;rounded=0;fontColor=#000000;labelBackgroundColor=#97D077;" vertex="1" parent="WIyWlLk6GJQsqaUBKTNV-1">
          <mxGeometry x="55" y="870" width="265" height="30" as="geometry" />
        </mxCell>
        <mxCell id="1TVI4xtX2g-0AGL2v32P-42" value="&lt;font color=&quot;#ffffff&quot;&gt;changed value of &quot;Completed&quot; to &quot;Yes&quot; &lt;br&gt;is trigged and used to send notifications to users&lt;/font&gt;" style="text;html=1;align=center;verticalAlign=middle;whiteSpace=wrap;rounded=0;fontColor=#33001A;labelBackgroundColor=#1BA1E2;" vertex="1" parent="WIyWlLk6GJQsqaUBKTNV-1">
          <mxGeometry x="370" y="720" width="380" height="30" as="geometry" />
        </mxCell>
        <mxCell id="1TVI4xtX2g-0AGL2v32P-16" value="" style="shape=actor;whiteSpace=wrap;html=1;strokeColor=#006EAF;fontColor=#ffffff;fillColor=#1ba1e2;" vertex="1" parent="WIyWlLk6GJQsqaUBKTNV-1">
          <mxGeometry x="550" y="477.75" width="25" height="37.5" as="geometry" />
        </mxCell>
        <mxCell id="1TVI4xtX2g-0AGL2v32P-43" value="" style="ellipse;whiteSpace=wrap;html=1;aspect=fixed;" vertex="1" parent="WIyWlLk6GJQsqaUBKTNV-1">
          <mxGeometry x="270.5" y="456.5" width="80" height="80" as="geometry" />
        </mxCell>
        <mxCell id="1TVI4xtX2g-0AGL2v32P-17" value="" style="html=1;verticalLabelPosition=bottom;align=center;labelBackgroundColor=#ffffff;verticalAlign=top;strokeWidth=2;strokeColor=#006EAF;shadow=0;dashed=0;shape=mxgraph.ios7.icons.bell;fontColor=#ffffff;fillColor=#1ba1e2;" vertex="1" parent="WIyWlLk6GJQsqaUBKTNV-1">
          <mxGeometry x="291" y="477.75" width="39" height="40" as="geometry" />
        </mxCell>
        <mxCell id="1TVI4xtX2g-0AGL2v32P-44" value="Home" style="text;html=1;align=center;verticalAlign=middle;whiteSpace=wrap;rounded=0;" vertex="1" parent="WIyWlLk6GJQsqaUBKTNV-1">
          <mxGeometry x="280.5" y="536.5" width="60" height="30" as="geometry" />
        </mxCell>
        <mxCell id="1TVI4xtX2g-0AGL2v32P-45" value="This structured information layout ensures users can efficiently navigate&amp;nbsp; and engage with the app, enhancing their habit-building experience." style="text;html=1;align=center;verticalAlign=middle;whiteSpace=wrap;rounded=0;" vertex="1" parent="WIyWlLk6GJQsqaUBKTNV-1">
          <mxGeometry x="237" y="90" width="416" height="30" as="geometry" />
        </mxCell>
      </root>
    </mxGraphModel>
  </diagram>
</mxfile>
